HIERARCHY
ROOT Hips
{
  OFFSET -31.5692 30.0904 122.763
  CHANNELS 6 Xposition Yposition Zposition Zrotation Xrotation Yrotation
  JOINT LeftUpLeg
  {
    OFFSET 8.64259 1.95398 -2.38835
    CHANNELS 3 Zrotation Xrotation Yrotation
    JOINT LeftLeg
    {
      OFFSET 43.7702 0 0
      CHANNELS 3 Zrotation Xrotation Yrotation
      JOINT LeftFoot
      {
        OFFSET 40.6238 0 0
        CHANNELS 3 Zrotation Xrotation Yrotation
        JOINT LeftToeBase
        {
          OFFSET 12.7242 0 0
          CHANNELS 3 Zrotation Xrotation Yrotation
          End Site
          {
            OFFSET 0 0 0
          }
        }
      }
    }
  }
  JOINT RightUpLeg
  {
    OFFSET -8.2249 1.95398 -2.59336
    CHANNELS 3 Zrotation Xrotation Yrotation
    JOINT RightLeg
    {
      OFFSET 43.5653 0 0
      CHANNELS 3 Zrotation Xrotation Yrotation
      JOINT RightFoot
      {
        OFFSET 40.6238 0 0
        CHANNELS 3 Zrotation Xrotation Yrotation
        JOINT RightToeBase
        {
          OFFSET 12.7242 0 0
          CHANNELS 3 Zrotation Xrotation Yrotation
          End Site
          {
            OFFSET 0 0 0
          }
        }
      }
    }
  }
  JOINT Spine
  {
    OFFSET 0.165834 0.87714 6.61349
    CHANNELS 3 Zrotation Xrotation Yrotation
    JOINT Spine1
    {
      OFFSET 7.38963 1.71661e-005 0
      CHANNELS 3 Zrotation Xrotation Yrotation
      JOINT Spine2
      {
        OFFSET 11.9445 1.14441e-005 0
        CHANNELS 3 Zrotation Xrotation Yrotation
        JOINT Spine3
        {
          OFFSET 14.7254 4.19617e-005 0
          CHANNELS 3 Zrotation Xrotation Yrotation
          JOINT Spine4
          {
            OFFSET 10.9679 0 0
            CHANNELS 3 Zrotation Xrotation Yrotation
            JOINT RightShoulder
            {
              OFFSET 2.46616 -1.6653 3.69651
              CHANNELS 3 Zrotation Xrotation Yrotation
              JOINT RightArm
              {
                OFFSET 13.0012 0 0
                CHANNELS 3 Zrotation Xrotation Yrotation
                JOINT RightForeArm
                {
                  OFFSET 28.7848 1.62311e-005 0
                  CHANNELS 3 Zrotation Xrotation Yrotation
                  JOINT RightHand
                  {
                    OFFSET 26.5688 1.62095e-005 0
                    CHANNELS 3 Zrotation Xrotation Yrotation
                    End Site
                    {
                      OFFSET 0 0 0
                    }
                  }
                }
              }
            }
            JOINT LeftShoulder
            {
              OFFSET 2.38034 -1.29275 -3.7523
              CHANNELS 3 Zrotation Xrotation Yrotation
              JOINT LeftArm
              {
                OFFSET 16.3182 6.07031e-005 0
                CHANNELS 3 Zrotation Xrotation Yrotation
                JOINT LeftForeArm
                {
                  OFFSET 27.0901 0 0
                  CHANNELS 3 Zrotation Xrotation Yrotation
                  JOINT LeftHand
                  {
                    OFFSET 24.5451 1.51738e-005 0
                    CHANNELS 3 Zrotation Xrotation Yrotation
                    End Site
                    {
                      OFFSET 0 0 0
                    }
                  }
                }
              }
            }
            JOINT Neck
            {
              OFFSET 5.0226 -0.0266342 0
              CHANNELS 3 Zrotation Xrotation Yrotation
              JOINT Head
              {
                OFFSET 6.69364 2.86102e-005 0
                CHANNELS 3 Zrotation Xrotation Yrotation
                End Site
                {
                  OFFSET 0 0 0
                }
              }
            }
          }
        }
      }
    }
  }
}
MOTION
Frames:	13
Frame Time:	0.0416667
0.249397 97.07 149.604 -149.464 -83.4345 -151.556 -178.261 18.9049 83.8017 -7.48965 0.406329 -1.27076 66.4105 3.99558 -2.62467 17.2793 -8.98696 6.97134 171.723 -11.733 90.1726 -21.9468 -18.81 -1.73799 78.7798 -11.5059 -3.6906 26.8501 0.0551582 3.83397 1.01891 8.17485 -89.8956 10.5253 2.07748 0.0219764 -1.14397 2.07643 -0.0695245 -23.6915 1.97479 0.645572 -3.67887 1.97479 0.645574 88.4802 -27.4123 -110.901 28.0244 -6.05313 -13.5238 2.01216 -29.2779 -19.8736 -25.4371 0.0875381 -10.8072 -87.7815 -56.6564 83.1623 -24.0349 -0.957739 -1.37855 -1.50152 2.1221 -1.18032 6.38477 -1.3739 -21.7541 -1.72883 -2.01466 3.91547 0.261508 -2.56918 -2.57779 
0.517759 96.4514 156.697 -141.247 -82.9773 -143.461 -178.121 17.6431 83.5225 -8.19063 0.749338 -1.51065 58.6616 -0.0780691 -3.07328 14.0287 -9.63178 4.50569 170.671 -16.8686 88.7973 -19.6204 -19.9807 -2.41119 76.9389 -11.0897 -4.73811 30.4213 -1.54913 4.32735 1.07876 8.04956 -89.8613 10.7756 2.21215 0.0710155 -0.893428 2.21313 -0.0264694 -23.4425 2.08848 0.732863 -3.42981 2.08849 0.732872 88.3022 -27.8259 -111.072 29.4871 -6.41714 -12.7517 2.07761 -29.8587 -19.821 -24.9609 0.107458 -11.1461 -87.4434 -57.3156 83.7334 -24.2271 -0.343577 -0.757438 -1.54233 2.76769 -0.303382 5.93345 -1.18037 -20.3537 -2.07588 -1.67033 4.18258 -0.0464878 -2.24821 -2.75654 
0.916711 96.4339 164.767 -135.27 -81.8217 -139.324 -177.11 18.5226 81.3106 -18.2659 2.51391 -2.39157 60.0096 -1.13475 -2.16529 9.49628 -12.0238 4.02952 168.035 -19.4036 84.5025 -22.0664 -22.2445 -3.71087 71.8404 -7.7905 -4.59804 37.6394 -4.63898 5.43493 1.10907 7.94184 -89.5645 10.9848 2.40967 0.637194 -0.684055 2.43538 0.53046 -23.2325 2.10673 1.33219 -3.21979 2.10673 1.3322 88.0475 -28.6277 -111.217 32.7192 -7.16463 -11.042 3.56468 -30.8473 -17.6131 -24.2767 0.0540998 -11.2476 -87.4085 -56.8539 83.7124 -24.4967 0.12634 0.148516 -1.56076 0.741796 0.0194951 4.97752 -0.938209 -18.5977 -2.44936 -1.52479 2.64126 -0.752081 -1.87098 -1.86101 
1.28563 97.0319 172.376 -138.616 -80.193 -144.78 -176.072 13.9231 78.9571 -22.5316 3.52042 -3.61573 64.6954 1.79754 -1.71239 8.00969 -12.458 3.27327 165.916 -17.7425 79.9328 -32.497 -25.2238 -5.96027 65.2888 -3.09517 -2.8221 38.5919 -5.24143 7.57863 0.998129 7.98039 -89.264 10.9004 2.32765 1.24537 -0.768928 2.38019 1.14168 -23.3108 1.84579 1.88739 -3.29816 1.84579 1.8874 87.8688 -29.1926 -111.316 36.0762 -7.97817 -8.38275 5.30468 -31.3735 -15.4902 -20.6595 -0.0682158 -11.4976 -87.6267 -56.1677 83.3024 -24.7916 0.131959 0.827267 -1.38833 -0.890343 -0.00256114 2.77976 -0.617865 -17.503 -3.35049 -1.14095 1.07732 -0.956182 -1.26327 -0.479118 
1.46364 97.6231 178.605 -133.524 -77.9821 -140.593 -175.599 8.53899 78.1845 -22.9048 1.60656 -4.2511 68.3595 4.22972 -1.74228 10.9358 -10.4482 2.74041 167.279 -9.49262 77.6898 -49.9909 -27.9083 -8.21223 57.3463 2.42333 0.803837 27.1223 -0.383437 5.53183 0.942801 8.05226 -89.1375 10.7528 2.27521 1.5051 -0.916959 2.33924 1.40349 -23.4552 1.71777 2.11927 -3.4426 1.71777 2.11929 87.5025 -29.6884 -111.812 37.6314 -8.36236 -6.00507 6.38865 -32.3836 -14.4603 -23.711 -0.282178 -9.79092 -87.7735 -55.4668 82.9846 -24.7759 0.612361 -0.130868 -1.59568 -1.25437 -0.00322869 3.61306 -0.657431 -16.5492 -3.28867 -0.367832 -0.184899 -1.13274 -0.334642 0.453326 
1.35535 98.0496 183.459 -128.206 -76.2133 -134.996 -175.976 4.49937 77.843 -21.9176 0.367539 -3.90995 70.9809 5.68903 -1.12646 11.0116 -10.7022 3.27232 171.86 -0.146308 79.4042 -63.317 -27.4336 -9.40903 59.1481 1.23367 0.128365 25.62 0.373342 4.75671 0.762144 8.09948 -89.2254 10.6624 1.87449 1.36915 -1.00783 1.93293 1.28531 -23.5438 1.37641 1.86917 -3.53111 1.37641 1.86915 86.6432 -29.0816 -113.783 38.7258 -7.20181 -2.96871 5.43343 -29.7648 -15.3773 -24.0433 -0.0958721 -10.1557 -88.5842 -55.4819 81.8418 -24.0434 1.15821 -1.64491 -1.57626 -0.641202 -0.00385497 4.5092 -0.661278 -14.9019 -3.08167 0.968049 0.352607 -0.968643 0.928415 0.321558 
0.683989 98.5502 188.054 -131.284 -76.1621 -135.173 -175.694 0.65596 80.0842 -21.7466 2.06138 -2.49458 73.2175 7.08465 -0.279489 12.4378 -10.2769 3.99524 175.256 5.82224 84.4401 -63.195 -20.1683 -7.4876 66.6747 -3.72918 -1.2257 27.5196 -0.350403 4.41959 0.416149 8.2241 -89.5617 10.4222 1.02992 0.780364 -1.24854 1.06326 0.734262 -23.7838 0.74778 1.0538 -3.77115 0.747777 1.0538 88.2132 -30.4766 -110.076 37.1147 -7.33485 -3.65474 5.53316 -31.6826 -15.3882 -24.0786 -0.266345 -9.62366 -88.4625 -54.4809 81.8417 -21.5977 4.28129 -6.58379 -2.6679 0.788121 -0.00438682 5.13248 -0.665839 -15.1852 -3.06511 1.73674 -2.09641 -0.525039 2.01722 2.17052 
-0.24037 98.8768 192.152 -134.238 -77.2102 -135.539 -174.744 -2.16061 82.9324 -21.3207 4.0969 -1.65561 75.0215 8.36826 -0.177816 14.2217 -9.71824 4.87938 178.046 11.2281 89.7983 -54.1585 -11.1972 -5.65675 69.2793 -5.35984 -2.20663 27.1857 -0.211974 4.44632 0.0692143 8.28471 -89.8825 10.3039 0.191657 0.217063 -1.36704 0.201016 0.208411 -23.9021 0.117563 0.264632 -3.88949 0.117556 0.264622 88.4354 -31.3147 -109.295 36.3256 -6.51548 -2.95475 5.34681 -30.1287 -15.1898 -24.3768 -0.217838 -9.49932 -88.4478 -52.4949 81.5104 -20.5987 5.93315 -12.1236 -3.59304 1.14236 -0.00476903 7.89496 -0.924798 -15.2093 -3.41232 2.34969 -3.8587 -0.880029 2.8329 3.2656 
-1.18153 98.7518 196.415 -140.411 -79.4742 -140.124 -174.128 -4.14893 84.9749 -21.545 6.3103 -0.768219 77.2578 9.74465 -0.153776 14.4807 -9.63166 5.00133 179.757 14.8729 92.8132 -39.2943 -7.3481 -4.17297 68.0896 -4.93142 -1.08786 24.9385 0.89575 3.76611 -0.337145 8.30042 -90.0676 10.2731 -0.702537 -0.0738097 -1.39767 -0.705098 -0.0428321 -23.9341 -0.647876 -0.281548 -3.92144 -0.647876 -0.28155 88.6218 -31.8066 -108.737 36.6365 -5.74972 -2.19628 4.96582 -29.1242 -15.1291 -24.5531 -0.103646 -9.87879 -88.5714 -50.2598 80.9163 -20.7719 4.78711 -16.9274 -2.63755 3.80998 -0.00495586 6.98205 -1.01652 -17.6322 -3.13535 2.624 -5.69803 -1.59092 3.32124 4.41598 
-1.76977 98.2576 201.133 -151.211 -81.6904 -150.717 -173.617 -6.57581 85.9177 -21.5067 10.0863 -0.420607 79.3497 11.3763 0.399114 16.5605 -9.44523 7.03163 179.735 16.0201 93.4002 -22.0259 -10.0283 -2.31472 63.174 -2.7404 -0.041034 23.9494 0.869825 5.60012 -0.689407 8.32551 -90.1113 10.2228 -1.42437 -0.099594 -1.44738 -1.42737 -0.036795 -23.9881 -1.32859 -0.52315 -3.97549 -1.32858 -0.523142 88.8855 -32.7444 -107.868 36.5377 -5.81227 -1.32415 4.89973 -29.1819 -15.6631 -23.7812 -0.0333623 -10.4342 -88.8523 -48.6577 80.1793 -20.2568 4.01788 -21.711 -2.64967 5.36906 -0.00488344 9.52107 -1.53973 -19.443 -1.9393 2.34657 -7.48918 -2.07913 3.32035 5.7217 
-2.32089 97.3598 206.686 -159.866 -82.8015 -159.226 -172.588 -10.6527 87.2468 -19.9228 12.3131 -0.438973 81.9067 13.4332 0.474579 16.7718 -9.3675 7.12949 178.886 15.4387 94.7275 -7.3553 -11.5745 -0.611448 60.8506 -1.55834 -0.440184 27.7999 -0.360542 3.90334 -0.880088 8.33217 -90.1736 10.2089 -1.83273 -0.188466 -1.4608 -1.83925 -0.107603 -24.005 -1.69134 -0.730718 -3.99238 -1.69134 -0.730717 88.677 -33.2681 -108.062 36.3122 -5.55081 -0.261935 5.02816 -29.3174 -15.5008 -22.3063 -0.177188 -9.90417 -89.0209 -48.14 79.8171 -20.9818 3.15533 -25.3534 -1.83841 6.1729 -0.0324062 10.486 -1.89528 -21.1015 -1.55526 2.14922 -7.63778 -2.27638 3.1558 5.55671 
-2.91685 95.9823 212.841 -167.479 -83.7235 -166.782 -171.196 -15.1043 88.9376 -18.0602 13.5531 -0.617359 84.5334 15.5962 -0.0539512 18.085 -8.58685 7.12762 178.942 17.7882 96.0143 -6.89214 -5.79962 0.538497 62.1983 -1.48664 0.392464 28.7141 -0.693876 3.61767 -0.997169 8.22859 -90.2161 10.4153 -2.08537 -0.246322 -1.25398 -2.09419 -0.154269 -23.8007 -1.9149 -0.861898 -3.78805 -1.9149 -0.861896 88.607 -34.1486 -107.86 36.089 -5.39608 0.240727 6.27729 -28.8725 -13.4475 -21.8847 -0.171251 -9.90791 -89.1581 -48.0724 79.5931 -21.9047 3.65497 -27.308 -1.65219 5.59666 -0.16856 10.4574 -1.95447 -21.5031 -1.87227 2.22415 -7.88391 -3.0072 3.20655 5.72791 
-3.32427 95.151 219.91 178.343 -83.6692 179.206 -169.488 -20.54 91.1412 -15.944 15.25 -0.412878 82.7053 14.6495 -1.32724 23.51 -6.51052 9.79459 178.917 18.5114 96.8024 -12.5858 -6.86175 0.511977 59.9608 0.773225 -1.03488 23.9251 1.16138 4.44024 -1.16206 8.16665 -90.3177 10.5378 -2.46047 -0.411678 -1.13083 -2.47621 -0.302927 -23.6814 -2.22296 -1.13245 -3.66876 -2.22295 -1.13246 88.3422 -34.7812 -108.111 35.508 -4.92895 1.11334 6.66963 -29.0465 -12.4567 -20.8989 -0.25202 -9.62854 -89.462 -48.9837 79.3211 -22.6024 4.59834 -27.1529 -2.00117 8.00476 -0.0346044 10.3352 -1.78505 -20.6173 -1.61784 2.29857 -6.74016 -3.36059 3.13551 5.8755 
